<svg xmlns="http://www.w3.org/2000/svg" width="16" height="16" viewBox="0 0 16 16">
  <path d="M12.32,1.75982H10.88v-.48a.9611.9611,0,0,0-.96-.96H6.08a.96107.96107,0,0,0-.96.96v.48H3.68a1.44155,1.44155,0,0,0-1.44,1.44v11.04a1.44154,1.44154,0,0,0,1.44,1.44h8.64a1.44153,1.44153,0,0,0,1.44-1.44v-11.04A1.44154,1.44154,0,0,0,12.32,1.75982Zm-6.24-.48H9.92l.00064,1.92H6.08Zm6.72,12.96a.48051.48051,0,0,1-.48.48H3.68a.48048.48048,0,0,1-.48-.48v-11.04a.48048.48048,0,0,1,.48-.48H5.12v.48a.96107.96107,0,0,0,.96.96H9.92a.9611.9611,0,0,0,.96-.96v-.48h1.44a.48051.48051,0,0,1,.48.48Zm-1.92-7.2H5.12a.48.48,0,0,1,0-.96h5.76a.48.48,0,0,1,0,.96Zm0,2.4H5.12a.48.48,0,1,1,0-.96h5.76a.48.48,0,0,1,0,.96Zm-1.92,2.4H5.12a.48.48,0,0,1,0-.96H8.96a.48.48,0,0,1,0,.96Z"/>
</svg>
