<svg width="25" height="24" viewBox="0 0 25 24" xmlns="http://www.w3.org/2000/svg">
<path d="M4.75 24H20.75C21.2804 24 21.7891 23.7893 22.1642 23.4142C22.5393 23.0391 22.75 22.5304 22.75 22V8C22.7505 7.91226 22.7337 7.82529 22.7005 7.74406C22.6673 7.66284 22.6185 7.58896 22.5567 7.52667L15.2233 0.193333C15.0952 0.0720686 14.9264 0.00310628 14.75 0H4.75C4.21957 0 3.71086 0.210714 3.33579 0.585787C2.96071 0.960859 2.75 1.46957 2.75 2V22C2.75 22.5304 2.96071 23.0391 3.33579 23.4142C3.71086 23.7893 4.21957 24 4.75 24ZM15.4167 2.27333L20.4767 7.33333H16.0833C15.9065 7.33333 15.737 7.2631 15.6119 7.13807C15.4869 7.01305 15.4167 6.84348 15.4167 6.66667V2.27333Z"/>
</svg>
