<svg width="16" height="16" viewBox="0 0 16 16" fill="none" xmlns="http://www.w3.org/2000/svg">
<path d="M3 5.25C3 3.85761 3.55312 2.52226 4.53769 1.53769C5.52226 0.553123 6.85761 0 8.25 0C9.64239 0 10.9777 0.553123 11.9623 1.53769C12.9469 2.52226 13.5 3.85761 13.5 5.25C13.5 6.76875 12.9975 8.427 12.1125 9.717C11.331 10.857 10.2052 11.7653 8.8125 11.961V12.1875C8.8125 12.498 9.0645 12.75 9.375 12.75H11.8125C12.0341 12.75 12.2535 12.7936 12.4583 12.8785C12.663 12.9633 12.849 13.0876 13.0057 13.2443C13.1624 13.401 13.2867 13.587 13.3715 13.7917C13.4564 13.9965 13.5 14.2159 13.5 14.4375V15.1875C13.5 15.3367 13.4407 15.4798 13.3352 15.5852C13.2298 15.6907 13.0867 15.75 12.9375 15.75C12.7883 15.75 12.6452 15.6907 12.5398 15.5852C12.4343 15.4798 12.375 15.3367 12.375 15.1875V14.4375C12.375 14.2883 12.3157 14.1452 12.2102 14.0398C12.1048 13.9343 11.9617 13.875 11.8125 13.875H9.375C8.92745 13.875 8.49823 13.6972 8.18176 13.3807C7.86529 13.0643 7.6875 12.6351 7.6875 12.1875V11.961C6.29475 11.7653 5.169 10.8563 4.3875 9.717C3.5025 8.427 3 6.76875 3 5.25ZM8.94 2.3295C8.79512 2.29618 8.64294 2.32157 8.51672 2.40011C8.3905 2.47866 8.30051 2.60398 8.26641 2.74869C8.23232 2.89339 8.25689 3.0457 8.33477 3.17234C8.41264 3.29898 8.53748 3.38963 8.682 3.4245C9.01979 3.50489 9.32869 3.67732 9.57441 3.92265C9.82013 4.16797 9.99306 4.47659 10.074 4.81425C10.0911 4.88615 10.1222 4.95398 10.1655 5.01386C10.2088 5.07375 10.2634 5.12452 10.3264 5.16328C10.3893 5.20203 10.4592 5.22802 10.5322 5.23975C10.6052 5.25147 10.6797 5.24871 10.7516 5.23163C10.8235 5.21454 10.8914 5.18345 10.9512 5.14015C11.0111 5.09685 11.0619 5.04218 11.1007 4.97925C11.1394 4.91633 11.1654 4.84639 11.1771 4.77342C11.1888 4.70046 11.1861 4.6259 11.169 4.554C11.0397 4.01324 10.7629 3.51898 10.3694 3.12623C9.97584 2.73348 9.48102 2.45767 8.94 2.3295Z" fill="#408F1D"/>
</svg>
