<?xml version="1.0" encoding="UTF-8"?>
<svg id="a" data-name="Слой 1" xmlns="http://www.w3.org/2000/svg" width="20" height="20" viewBox="0 0 20 20">
  <path d="M13.9,1.5h-7.8C3.56,1.5,1.5,3.56,1.5,6.1v7.8c0,2.54,2.06,4.6,4.6,4.6h7.8c2.54,0,4.6-2.06,4.6-4.6v-7.8c0-2.54-2.06-4.6-4.6-4.6h0ZM10,14.65c-2.56,0-4.65-2.09-4.65-4.65s2.09-4.65,4.65-4.65,4.65,2.09,4.65,4.65-2.09,4.65-4.65,4.65ZM14.76,6.45c-.76,0-1.37-.62-1.37-1.37s.62-1.37,1.37-1.37,1.37.62,1.37,1.37-.62,1.37-1.37,1.37ZM10,6.35c-2.01,0-3.65,1.64-3.65,3.65s1.64,3.65,3.65,3.65,3.65-1.64,3.65-3.65-1.64-3.65-3.65-3.65ZM14.76,4.7c-.21,0-.38.17-.38.38s.17.38.38.38.38-.17.38-.38-.17-.38-.38-.38Z" fill="#000" stroke-width="0"/>
</svg>