<svg xmlns="http://www.w3.org/2000/svg" viewBox="0 0 60 60">
  <path d="M30,.15247A29.84753,29.84753,0,1,0,59.84753,30,29.84752,29.84752,0,0,0,30,.15247Zm-15.083,50.073a16.45317,16.45317,0,0,1,30.1677-.0012A25.12876,25.12876,0,0,1,14.917,50.22547Zm33.7208-3.20334a21.042,21.042,0,0,0-37.2732.0029,25.25564,25.25564,0,1,1,37.2732-.0029Zm-18.6373-32.9068a9.63935,9.63935,0,1,0,9.639,9.6397v-.0006A9.64991,9.64991,0,0,0,30.00053,14.11533Zm0,14.6867a5.04735,5.04735,0,1,1,5.047-5.0477v.0001A5.05315,5.05315,0,0,1,30.00053,28.802Z"/>
</svg>
