<?xml version="1.0" encoding="UTF-8"?>
<svg id="a" data-name="Слой 1" xmlns="http://www.w3.org/2000/svg" width="20" height="20" viewBox="0 0 20 20">
  <path d="M19.01,13.26c-.43-.53-.92-1-1.39-1.46-.17-.16-.34-.33-.51-.5-.48-.48-.5-.66-.12-1.21.26-.38.54-.75.81-1.12.24-.33.5-.67.74-1.02l.05-.07c.46-.66.94-1.34,1.2-2.15.07-.22.14-.53-.02-.8-.16-.26-.47-.35-.69-.38-.11-.02-.22-.02-.31-.02h-3.03s-.03,0-.03,0c-.46,0-.77.22-.95.68-.17.43-.36.9-.57,1.34-.42.88-.96,1.89-1.73,2.73l-.03.04c-.09.1-.2.21-.27.21-.01,0-.02,0-.04,0-.16-.06-.27-.46-.26-.65h0s0-3.59,0-3.59c0-.01,0-.02,0-.04-.08-.59-.25-.95-.9-1.08-.02,0-.03,0-.05,0h-3.16c-.51,0-.8.21-1.07.53-.07.09-.22.26-.15.48.08.22.32.26.4.28.39.08.62.32.68.76.11.75.12,1.55.04,2.52-.02.27-.07.48-.14.66-.02.04-.08.18-.14.18-.02,0-.08,0-.18-.08-.24-.17-.41-.42-.62-.72-.71-1.03-1.31-2.16-1.82-3.46-.19-.48-.55-.75-1.01-.76-.51,0-.96-.01-1.4-.01-.47,0-.92,0-1.35.01-.37,0-.63.12-.76.34-.14.22-.13.5.03.85,1.21,2.77,2.31,4.78,3.57,6.52.88,1.22,1.76,2.06,2.78,2.66,1.07.62,2.27.93,3.66.93.16,0,.32,0,.49-.01.81-.04,1.11-.34,1.15-1.15.02-.41.06-.85.26-1.21.12-.23.24-.23.28-.23.07,0,.17.04.26.1.18.12.33.28.45.42.12.13.23.26.35.4.25.28.51.58.78.86.59.61,1.24.88,1.98.83h2.8c.28-.02.52-.18.66-.43.17-.32.17-.72,0-1.08-.21-.41-.47-.76-.71-1.05Z" fill="#000" fill-rule="evenodd" stroke-width="0"/>
</svg>