<?xml version="1.0" encoding="UTF-8"?>
<svg id="a" data-name="Слой 1" xmlns="http://www.w3.org/2000/svg" width="21.42" height="15" viewBox="0 0 21.42 15">
  <path d="M20.98,2.35c-.25-.92-.97-1.64-1.89-1.89-1.68-.46-8.38-.46-8.38-.46,0,0-6.71,0-8.38.44-.9.25-1.64.99-1.89,1.91-.44,1.68-.44,5.15-.44,5.15,0,0,0,3.49.44,5.15.25.92.97,1.64,1.89,1.89,1.69.46,8.38.46,8.38.46,0,0,6.71,0,8.38-.44.92-.25,1.64-.97,1.89-1.89.44-1.68.44-5.15.44-5.15,0,0,.02-3.49-.44-5.17ZM8.58,10.71v-6.42l5.58,3.21-5.58,3.21Z" fill="#000" stroke-width="0"/>
</svg>