<?xml version="1.0" encoding="UTF-8"?>
<svg id="a" xmlns="http://www.w3.org/2000/svg" width="20" height="20" viewBox="0 0 20 20">
  <path d="M9.91,1.5c-3.5,0-5.93,0-7.18,1.23-1.22,1.25-1.23,3.79-1.23,7.18,3.76-.11,5.48-.21,6.86-1.55,1.34-1.37,1.43-3.09,1.55-6.86ZM2.73,17.27c-1.22-1.25-1.23-3.79-1.23-7.18,3.76.11,5.48.21,6.86,1.55,1.34,1.37,1.43,3.09,1.55,6.86-3.5,0-5.93-.01-7.18-1.23ZM10.09,18.5c.11-3.76.21-5.48,1.55-6.86,1.37-1.34,3.09-1.43,6.86-1.55,0,3.39-.01,5.93-1.23,7.18-1.25,1.22-3.67,1.23-7.18,1.23ZM10.09,1.5c.11,3.76.21,5.48,1.55,6.86,1.37,1.34,3.09,1.43,6.86,1.55,0-3.39-.01-5.93-1.23-7.18-1.25-1.22-3.67-1.23-7.18-1.23Z" fill="#000" fill-rule="evenodd" stroke-width="0"/>
</svg>