<svg xmlns="http://www.w3.org/2000/svg" width="34.38124" height="37" viewBox="0 0 34.38124 37">
  <path d="M18.098,0H11.1765a3.82922,3.82922,0,0,0-3.525,2.90751l-1.621,7.0758a.35442.35442,0,0,0,.33449.43739h9.5202a.33129.33129,0,0,0,.3345-.283L18.4325.43741A.34227.34227,0,0,0,18.098,0ZM14.4443,16.1586H4.92411a.33124.33124,0,0,0-.33449.283l-4.58,20.121a.35571.35571,0,0,0,.07719.3087A.36863.36863,0,0,0,.36987,37H6.77669A4.522,4.522,0,0,0,10.945,33.6294l3.8595-17.0077a.39875.39875,0,0,0-.3602-.4631Zm16.3129,0-9.5202-.0258a.33119.33119,0,0,0-.3344.2831l-2.2386,9.726a.35578.35578,0,0,0,.0772.3087.36872.36872,0,0,0,.2831.1287h6.8185a3.98953,3.98953,0,0,0,3.6536-2.8561l1.6468-7.1015a.356.356,0,0,0-.0772-.3088A.40205.40205,0,0,0,30.7572,16.1586ZM32.0695,0H24.9422a.33124.33124,0,0,0-.3345.283l-2.2643,9.726a.35591.35591,0,0,0,.0772.3088.36872.36872,0,0,0,.2831.1287h9.5716a.33131.33131,0,0,0,.3345-.2831L34.308,2.90751A2.24376,2.24376,0,0,0,32.0695,0Z" style="fill: #c00;fill-rule: evenodd"/>
</svg>
