<svg width="215" height="42" viewBox="0 0 215 42" fill="none" xmlns="http://www.w3.org/2000/svg">
<path d="M53.7707 26.3919C53.9523 26.4524 54.0998 26.5281 54.2134 26.6189C54.3269 26.7097 54.4139 26.8157 54.4744 26.9367C54.5425 27.0578 54.5917 27.1903 54.622 27.334C54.6523 27.4778 54.6788 27.6367 54.7015 27.8108L55.0193 30.4443C55.0269 30.4822 55.0193 30.5276 54.9966 30.5805C54.9815 30.6259 54.9323 30.6486 54.849 30.6486H54.1907C54.1528 30.6486 54.1112 30.6411 54.0658 30.6259C54.028 30.6108 54.0015 30.5692 53.9863 30.5011L53.6912 27.9697C53.6382 27.5308 53.5096 27.2394 53.3053 27.0957C53.1085 26.9443 52.8209 26.8686 52.4425 26.8686L50.8761 26.88L50.3653 30.4784C50.3577 30.554 50.3388 30.6032 50.3085 30.6259C50.2782 30.6411 50.2328 30.6486 50.1723 30.6486H49.5366C49.4761 30.6486 49.4307 30.6411 49.4004 30.6259C49.3701 30.6032 49.3625 30.554 49.3777 30.4784L50.4447 22.873C50.4598 22.7973 50.4825 22.7519 50.5128 22.7367C50.5431 22.714 50.5885 22.7027 50.649 22.7027H51.2961C51.3566 22.7027 51.3982 22.714 51.4209 22.7367C51.4512 22.7519 51.455 22.7973 51.4323 22.873L51.0009 25.9378H52.4653C52.5863 25.9378 52.7112 25.9265 52.8398 25.9038C52.9761 25.8735 53.1123 25.8205 53.2485 25.7449C53.3847 25.6616 53.5134 25.5443 53.6344 25.393C53.7555 25.2416 53.8653 25.0411 53.9636 24.7913L54.7355 22.8276C54.7582 22.7594 54.7923 22.7178 54.8377 22.7027C54.8831 22.6876 54.9247 22.68 54.9625 22.68H55.5755C55.6588 22.68 55.6966 22.7065 55.689 22.7594C55.689 22.8124 55.6815 22.8578 55.6663 22.8957L54.9058 24.9276C54.7771 25.253 54.622 25.5367 54.4404 25.7789C54.2663 26.0135 54.0469 26.1989 53.782 26.3351L53.7707 26.3919Z" fill="white"/>
<path d="M59.2724 24.5643C59.5222 24.5643 59.8211 24.5794 60.1692 24.6097C60.5249 24.64 60.9032 24.7081 61.3043 24.814C61.4254 24.8519 61.4935 24.9011 61.5086 24.9616C61.5238 25.0146 61.5238 25.0827 61.5086 25.1659C61.38 26.0513 61.2589 26.8989 61.1454 27.7086C61.0319 28.5184 60.9222 29.347 60.8162 30.1946C60.8086 30.293 60.7481 30.3686 60.6346 30.4216C60.4681 30.4897 60.2865 30.5465 60.0897 30.5919C59.893 30.6373 59.6924 30.6713 59.4881 30.694C59.2913 30.7243 59.0946 30.7432 58.8978 30.7508C58.7011 30.7659 58.5232 30.7735 58.3643 30.7735C57.9557 30.7735 57.6076 30.7167 57.32 30.6032C57.04 30.4897 56.813 30.3346 56.6389 30.1378C56.4649 29.9411 56.34 29.7103 56.2643 29.4454C56.1886 29.1805 56.1508 28.8967 56.1508 28.594C56.1508 28.0265 56.2076 27.5005 56.3211 27.0162C56.4422 26.5243 56.6276 26.0967 56.8773 25.7335C57.127 25.3703 57.4486 25.0865 57.8422 24.8822C58.2357 24.6703 58.7124 24.5643 59.2724 24.5643ZM58.6481 29.9222C58.7313 29.9222 58.8259 29.9184 58.9319 29.9108C59.0454 29.9032 59.1589 29.8919 59.2724 29.8767C59.3859 29.8616 59.4957 29.8427 59.6016 29.82C59.7151 29.7973 59.8173 29.767 59.9081 29.7292C59.9989 29.0027 60.0897 28.3027 60.1805 27.6292C60.2789 26.9557 60.3811 26.2708 60.487 25.5746C60.2978 25.514 60.0859 25.4724 59.8513 25.4497C59.6243 25.427 59.4238 25.4157 59.2497 25.4157C58.9773 25.4157 58.7124 25.4686 58.4551 25.5746C58.2054 25.673 57.9822 25.8432 57.7854 26.0854C57.5886 26.32 57.4297 26.634 57.3086 27.0276C57.1876 27.4211 57.127 27.913 57.127 28.5032C57.127 28.9649 57.2405 29.3167 57.4676 29.5589C57.7022 29.8011 58.0957 29.9222 58.6481 29.9222Z" fill="white"/>
<path d="M65.2315 26.0513C64.8305 26.0513 64.5013 26.1384 64.244 26.3124C63.9942 26.4789 63.7975 26.6908 63.6537 26.9481C63.5099 27.1978 63.4115 27.4703 63.3586 27.7654C63.3056 28.053 63.2791 28.3178 63.2791 28.56C63.2791 28.7265 63.2942 28.893 63.3245 29.0594C63.3623 29.2259 63.4267 29.3773 63.5175 29.5135C63.6159 29.6422 63.7483 29.7481 63.9148 29.8313C64.0813 29.9146 64.2969 29.9562 64.5618 29.9562C64.8569 29.9562 65.1142 29.8957 65.3337 29.7746C65.5607 29.6535 65.7537 29.4946 65.9126 29.2978C66.0791 29.1011 66.2115 28.8778 66.3099 28.6281C66.4159 28.3708 66.4991 28.1135 66.5596 27.8562C66.6277 27.5913 66.6769 27.334 66.7072 27.0843C66.7375 26.827 66.7564 26.6 66.764 26.4032C66.4991 26.2443 66.2191 26.1459 65.924 26.1081C65.6364 26.0703 65.4056 26.0513 65.2315 26.0513ZM65.3904 22.2486C66.9645 22.2486 67.7364 23.3649 67.7061 25.5973C67.6986 25.8773 67.6796 26.1989 67.6494 26.5622C67.6191 26.9254 67.5623 27.3 67.4791 27.6859C67.4034 28.0719 67.2899 28.4503 67.1386 28.8211C66.9948 29.1843 66.8056 29.5135 66.571 29.8086C66.344 30.0962 66.0602 30.3308 65.7196 30.5124C65.3867 30.6865 64.9932 30.7735 64.5391 30.7735C64.1229 30.7735 63.771 30.713 63.4834 30.5919C63.2034 30.4708 62.9764 30.3119 62.8023 30.1151C62.6283 29.9108 62.5034 29.6838 62.4277 29.434C62.3521 29.1767 62.3142 28.9119 62.3142 28.6394C62.3142 28.2308 62.3634 27.8259 62.4618 27.4249C62.5677 27.0162 62.7342 26.653 62.9613 26.3351C63.1959 26.0097 63.5023 25.7486 63.8807 25.5519C64.2591 25.3476 64.7245 25.2454 65.2769 25.2454C65.4737 25.2454 65.7121 25.2643 65.9921 25.3022C66.2796 25.34 66.5369 25.4119 66.764 25.5178L66.8094 25.4951C66.8245 25.147 66.8094 24.8254 66.764 24.5303C66.7261 24.2276 66.6504 23.9665 66.5369 23.747C66.4234 23.5276 66.2721 23.3535 66.0829 23.2249C65.8937 23.0962 65.6553 23.0319 65.3677 23.0319C65.2088 23.0319 65.0196 23.047 64.8002 23.0773C64.5807 23.1 64.2969 23.1643 63.9488 23.2703C63.9186 23.2854 63.8769 23.2967 63.824 23.3043C63.7786 23.3043 63.7407 23.2627 63.7105 23.1794L63.5969 22.7935C63.5742 22.7254 63.5742 22.6838 63.5969 22.6686C63.6196 22.6459 63.6386 22.6308 63.6537 22.6232C63.9715 22.4946 64.2742 22.4 64.5618 22.3394C64.8569 22.2789 65.1332 22.2486 65.3904 22.2486Z" fill="white"/>
<path d="M70.7801 30.7735C70.5834 30.7735 70.3677 30.7622 70.1331 30.7394C69.8985 30.7167 69.6488 30.6638 69.3839 30.5805L69.0661 32.7827C69.0585 32.8508 69.0396 32.8924 69.0093 32.9076C68.9866 32.9303 68.945 32.9416 68.8844 32.9416H68.2715C68.2109 32.9416 68.1655 32.9303 68.1353 32.9076C68.105 32.8924 68.0974 32.8508 68.1126 32.7827L69.1796 25.1773C69.1871 25.0789 69.2439 25.0146 69.3499 24.9843C69.7358 24.8178 70.118 24.7081 70.4963 24.6551C70.8823 24.5946 71.2493 24.5643 71.5974 24.5643C71.9909 24.5643 72.3277 24.6249 72.6077 24.7459C72.8877 24.867 73.1147 25.0373 73.2888 25.2567C73.4704 25.4762 73.6028 25.7411 73.6861 26.0513C73.7693 26.354 73.8109 26.687 73.8109 27.0503C73.8109 27.5876 73.7428 28.0832 73.6066 28.5373C73.4704 28.9913 73.2699 29.3849 73.005 29.7178C72.7477 30.0508 72.4299 30.3119 72.0515 30.5011C71.6807 30.6827 71.2569 30.7735 70.7801 30.7735ZM69.5088 29.7178C69.7736 29.8011 70.0044 29.8578 70.2012 29.8881C70.398 29.9108 70.5834 29.9222 70.7574 29.9222C71.0223 29.9222 71.2796 29.873 71.5293 29.7746C71.779 29.6762 71.9985 29.5173 72.1877 29.2978C72.3844 29.0708 72.5396 28.7794 72.6531 28.4238C72.7666 28.0605 72.8234 27.614 72.8234 27.0843C72.8234 26.4713 72.6947 26.04 72.4374 25.7903C72.1801 25.5405 71.8244 25.4157 71.3704 25.4157C71.1812 25.4157 70.9617 25.4346 70.712 25.4724C70.4699 25.5103 70.2617 25.5632 70.0877 25.6313L69.5088 29.7178Z" fill="white"/>
<path d="M77.7044 24.5643C78.4308 24.5643 78.9871 24.7724 79.373 25.1886C79.7665 25.5973 79.9633 26.1838 79.9633 26.9481C79.9633 27.5308 79.8914 28.0605 79.7476 28.5373C79.6114 29.0065 79.4108 29.4076 79.146 29.7405C78.8887 30.0735 78.5708 30.3308 78.1925 30.5124C77.8217 30.6865 77.4017 30.7735 76.9325 30.7735C76.2135 30.7735 75.6611 30.5805 75.2752 30.1946C74.8968 29.8011 74.7076 29.2259 74.7076 28.4692C74.7076 27.8335 74.7871 27.2735 74.946 26.7892C75.1049 26.3049 75.3206 25.9 75.593 25.5746C75.8654 25.2416 76.1833 24.9919 76.5465 24.8254C76.9098 24.6513 77.2957 24.5643 77.7044 24.5643ZM77.6363 25.393C77.2881 25.393 76.9892 25.48 76.7395 25.654C76.4973 25.8205 76.2968 26.0438 76.1379 26.3238C75.979 26.6038 75.8617 26.9254 75.786 27.2886C75.7103 27.6443 75.6725 28.0076 75.6725 28.3784C75.6725 28.8551 75.7784 29.2373 75.9903 29.5249C76.2022 29.8049 76.5541 29.9449 77.046 29.9449C77.4168 29.9449 77.7233 29.854 77.9654 29.6724C78.2152 29.4832 78.4157 29.2449 78.5671 28.9573C78.7184 28.6622 78.8244 28.3367 78.8849 27.9811C78.953 27.6254 78.9871 27.2773 78.9871 26.9367C78.9871 26.7249 78.9644 26.5243 78.919 26.3351C78.8735 26.1459 78.7979 25.9832 78.6919 25.847C78.5935 25.7032 78.4573 25.5935 78.2833 25.5178C78.1092 25.4346 77.8935 25.393 77.6363 25.393Z" fill="white"/>
<path d="M84.5724 27.3227C84.9734 27.4362 85.2497 27.6103 85.401 27.8449C85.5524 28.0719 85.628 28.3405 85.628 28.6508C85.628 29.0065 85.5599 29.3167 85.4237 29.5816C85.2951 29.8465 85.1134 30.0697 84.8789 30.2513C84.6443 30.4254 84.368 30.5578 84.0502 30.6486C83.7324 30.7319 83.388 30.7735 83.0172 30.7735C82.6389 30.7735 82.2529 30.7394 81.8594 30.6713C81.4734 30.6108 81.1518 30.52 80.8945 30.3989C80.7962 30.3611 80.7583 30.2854 80.781 30.1719L81.2805 26.494C81.3637 25.9038 81.5945 25.4346 81.9729 25.0865C82.3589 24.7308 82.8999 24.553 83.5962 24.553C83.9443 24.553 84.2356 24.5946 84.4702 24.6778C84.7124 24.7611 84.9053 24.8708 85.0491 25.007C85.2005 25.1357 85.3102 25.287 85.3783 25.4611C85.4464 25.6276 85.4805 25.7978 85.4805 25.9719C85.4805 26.0551 85.4691 26.1573 85.4464 26.2784C85.4237 26.3919 85.3783 26.513 85.3102 26.6416C85.2421 26.7627 85.1475 26.88 85.0264 26.9935C84.9129 27.107 84.7616 27.2016 84.5724 27.2773V27.3227ZM83.074 29.9676C83.5886 29.9676 83.9821 29.8503 84.2545 29.6157C84.527 29.3811 84.6632 29.0632 84.6632 28.6622C84.6632 28.3897 84.5572 28.1778 84.3453 28.0265C84.1334 27.8676 83.7891 27.7881 83.3124 27.7881H83.108C83.0324 27.7881 82.9756 27.7805 82.9378 27.7654C82.8999 27.7427 82.8886 27.6973 82.9037 27.6292L82.9718 27.2205C82.987 27.1297 83.0172 27.0767 83.0626 27.0616C83.1156 27.0389 83.2102 27.0238 83.3464 27.0162C83.5583 27.0086 83.7399 26.9784 83.8913 26.9254C84.0426 26.8649 84.1637 26.793 84.2545 26.7097C84.3529 26.6265 84.421 26.5357 84.4589 26.4373C84.5043 26.3313 84.527 26.2292 84.527 26.1308C84.527 26.04 84.508 25.9492 84.4702 25.8584C84.4399 25.7676 84.3832 25.6843 84.2999 25.6086C84.2167 25.533 84.107 25.4724 83.9707 25.427C83.8421 25.3816 83.6832 25.3589 83.494 25.3589C83.267 25.3589 83.074 25.3967 82.9151 25.4724C82.7637 25.5405 82.6389 25.6351 82.5405 25.7562C82.4421 25.8697 82.3664 26.0022 82.3134 26.1535C82.268 26.2973 82.234 26.4449 82.2113 26.5962L81.7459 29.7973C81.8443 29.8276 81.954 29.854 82.0751 29.8767C82.1962 29.8919 82.3172 29.907 82.4383 29.9222C82.5594 29.9373 82.6729 29.9486 82.7789 29.9562C82.8924 29.9638 82.9907 29.9676 83.074 29.9676Z" fill="white"/>
<path d="M92.7897 30.4443C92.7746 30.5276 92.7481 30.5843 92.7102 30.6146C92.68 30.6373 92.6308 30.6486 92.5627 30.6486H92.0178C91.9497 30.6486 91.9005 30.6373 91.8702 30.6146C91.84 30.5843 91.8286 30.5276 91.8362 30.4443L92.6308 24.8822C92.6459 24.7989 92.6686 24.7459 92.6989 24.7232C92.7291 24.7005 92.7783 24.6892 92.8464 24.6892H93.3913C93.4594 24.6892 93.5086 24.7005 93.5389 24.7232C93.5767 24.7459 93.5881 24.7989 93.5729 24.8822L92.7897 30.4443ZM89.3502 27.3567C89.1989 27.3567 88.9756 27.3757 88.6805 27.4135C88.3854 27.4438 88.0902 27.5043 87.7951 27.5951L87.4659 29.7859C87.5718 29.8238 87.6854 29.854 87.8064 29.8767C87.9351 29.8994 88.06 29.9184 88.181 29.9335C88.3097 29.9411 88.4308 29.9486 88.5443 29.9562C88.6578 29.9638 88.76 29.9676 88.8508 29.9676C89.161 29.9676 89.4221 29.9184 89.634 29.82C89.8459 29.7216 90.0162 29.5967 90.1448 29.4454C90.281 29.294 90.3756 29.1276 90.4286 28.9459C90.4891 28.7643 90.5194 28.5903 90.5194 28.4238C90.5194 28.0984 90.4324 27.8411 90.2583 27.6519C90.0918 27.4551 89.7891 27.3567 89.3502 27.3567ZM87.92 26.7665C88.1621 26.6908 88.427 26.6303 88.7146 26.5849C89.0097 26.5394 89.2859 26.5167 89.5432 26.5167C89.914 26.5167 90.2205 26.5622 90.4627 26.653C90.7124 26.7362 90.9091 26.8573 91.0529 27.0162C91.2043 27.1751 91.3102 27.3605 91.3708 27.5724C91.4389 27.7843 91.4729 28.0151 91.4729 28.2649C91.4729 28.5297 91.4313 28.8097 91.3481 29.1049C91.2648 29.4 91.1173 29.6724 90.9054 29.9222C90.701 30.1643 90.421 30.3686 90.0654 30.5351C89.7173 30.694 89.2746 30.7735 88.7373 30.7735C88.5556 30.7735 88.3627 30.7622 88.1583 30.7394C87.9616 30.7243 87.7686 30.6978 87.5794 30.66C87.3902 30.6297 87.2086 30.5919 87.0345 30.5465C86.8681 30.5011 86.7167 30.4481 86.5805 30.3876C86.4897 30.3497 86.4556 30.2778 86.4783 30.1719L87.2162 24.8594C87.2313 24.7838 87.254 24.7384 87.2843 24.7232C87.3145 24.7005 87.36 24.6892 87.4205 24.6892H88.0335C88.094 24.6892 88.1356 24.7005 88.1583 24.7232C88.1886 24.7384 88.1962 24.7838 88.181 24.8594L87.92 26.7665Z" fill="white"/>
<path d="M95.1979 24.8481C95.213 24.7724 95.2357 24.727 95.266 24.7119C95.2962 24.6892 95.3416 24.6778 95.4022 24.6778H96.0038C96.0643 24.6778 96.106 24.6892 96.1287 24.7119C96.1589 24.727 96.1665 24.7724 96.1514 24.8481L95.7314 27.8789C95.6784 28.2497 95.6519 28.5638 95.6519 28.8211C95.6519 29.0784 95.6973 29.2865 95.7881 29.4454C95.8865 29.6043 96.0379 29.7178 96.2422 29.7859C96.4541 29.854 96.7416 29.8881 97.1049 29.8881C97.1881 29.8881 97.3319 29.8843 97.5362 29.8767C97.7406 29.8616 97.9638 29.8351 98.206 29.7973L98.9097 24.8481C98.9249 24.7724 98.9438 24.727 98.9665 24.7119C98.9968 24.6892 99.0422 24.6778 99.1027 24.6778H99.7157C99.7762 24.6778 99.8179 24.6892 99.8406 24.7119C99.8708 24.727 99.8784 24.7724 99.8633 24.8481L99.1708 29.8086C99.1027 30.293 98.8303 30.5805 98.3535 30.6713C98.2476 30.6865 98.1303 30.6978 98.0016 30.7054C97.873 30.7205 97.7406 30.7319 97.6043 30.7394C97.4757 30.747 97.3508 30.7508 97.2297 30.7508C97.1087 30.7584 97.0027 30.7622 96.9119 30.7622C96.42 30.7622 96.0189 30.713 95.7087 30.6146C95.3984 30.5086 95.16 30.3459 94.9935 30.1265C94.8346 29.8994 94.74 29.6081 94.7097 29.2524C94.6795 28.8892 94.7022 28.4503 94.7779 27.9357L95.1979 24.8481ZM97.4795 24.0308C97.2979 24.0308 97.1276 24.0005 96.9687 23.94C96.8097 23.8719 96.6622 23.7849 96.526 23.6789C96.3897 23.5654 96.2649 23.4367 96.1514 23.293C96.0454 23.1492 95.9508 22.9978 95.8676 22.8389C95.8525 22.8086 95.8411 22.7784 95.8335 22.7481C95.8335 22.7103 95.8638 22.6686 95.9243 22.6232L96.1741 22.4303C96.2346 22.3924 96.2762 22.3811 96.2989 22.3962C96.3216 22.4038 96.3519 22.4303 96.3897 22.4757C96.5865 22.7178 96.7908 22.907 97.0027 23.0432C97.2146 23.1794 97.4189 23.2476 97.6157 23.2476C97.7822 23.2476 97.9789 23.1984 98.206 23.1C98.433 22.994 98.7243 22.7746 99.08 22.4416C99.1406 22.3886 99.1822 22.3659 99.2049 22.3735C99.2276 22.3735 99.2541 22.3849 99.2843 22.4076L99.4773 22.5892C99.5303 22.6497 99.5492 22.6951 99.5341 22.7254C99.5189 22.7557 99.5038 22.7859 99.4887 22.8162C99.1254 23.2476 98.7697 23.5578 98.4216 23.747C98.0811 23.9362 97.767 24.0308 97.4795 24.0308Z" fill="white"/>
<path d="M108.327 30.4784C108.312 30.554 108.289 30.6032 108.259 30.6259C108.236 30.6411 108.191 30.6486 108.123 30.6486H107.521C107.461 30.6486 107.415 30.6411 107.385 30.6259C107.362 30.6032 107.355 30.554 107.362 30.4784L107.794 27.4703C107.839 27.1297 107.854 26.8346 107.839 26.5849C107.832 26.3276 107.771 26.1157 107.658 25.9492C107.552 25.7751 107.385 25.6465 107.158 25.5632C106.931 25.48 106.628 25.4384 106.25 25.4384C106.167 25.4384 106.034 25.4459 105.853 25.4611C105.679 25.4686 105.467 25.4913 105.217 25.5292L104.525 30.4784C104.509 30.554 104.487 30.6032 104.456 30.6259C104.434 30.6411 104.392 30.6486 104.332 30.6486H103.73C103.669 30.6486 103.624 30.6411 103.594 30.6259C103.564 30.6032 103.556 30.554 103.571 30.4784L104.264 25.5292C104.332 25.0222 104.604 24.7346 105.081 24.6665C105.164 24.6513 105.262 24.64 105.376 24.6324C105.497 24.6173 105.622 24.6059 105.751 24.5984C105.879 24.5832 106.004 24.5757 106.125 24.5757C106.246 24.5681 106.352 24.5643 106.443 24.5643C106.92 24.5643 107.321 24.6173 107.646 24.7232C107.972 24.8292 108.229 24.9994 108.418 25.234C108.607 25.4611 108.728 25.7562 108.781 26.1194C108.834 26.4827 108.823 26.9216 108.747 27.4362L108.327 30.4784Z" fill="white"/>
<path d="M112.867 24.5643C113.593 24.5643 114.15 24.7724 114.536 25.1886C114.929 25.5973 115.126 26.1838 115.126 26.9481C115.126 27.5308 115.054 28.0605 114.91 28.5373C114.774 29.0065 114.573 29.4076 114.309 29.7405C114.051 30.0735 113.733 30.3308 113.355 30.5124C112.984 30.6865 112.564 30.7735 112.095 30.7735C111.376 30.7735 110.824 30.5805 110.438 30.1946C110.059 29.8011 109.87 29.2259 109.87 28.4692C109.87 27.8335 109.95 27.2735 110.109 26.7892C110.267 26.3049 110.483 25.9 110.756 25.5746C111.028 25.2416 111.346 24.9919 111.709 24.8254C112.072 24.6513 112.458 24.5643 112.867 24.5643ZM112.799 25.393C112.451 25.393 112.152 25.48 111.902 25.654C111.66 25.8205 111.459 26.0438 111.3 26.3238C111.142 26.6038 111.024 26.9254 110.949 27.2886C110.873 27.6443 110.835 28.0076 110.835 28.3784C110.835 28.8551 110.941 29.2373 111.153 29.5249C111.365 29.8049 111.717 29.9449 112.209 29.9449C112.579 29.9449 112.886 29.854 113.128 29.6724C113.378 29.4832 113.578 29.2449 113.73 28.9573C113.881 28.6622 113.987 28.3367 114.047 27.9811C114.116 27.6254 114.15 27.2773 114.15 26.9367C114.15 26.7249 114.127 26.5243 114.082 26.3351C114.036 26.1459 113.96 25.9832 113.855 25.847C113.756 25.7032 113.62 25.5935 113.446 25.5178C113.272 25.4346 113.056 25.393 112.799 25.393Z" fill="white"/>
<path d="M118.225 30.7735C118.028 30.7735 117.813 30.7622 117.578 30.7394C117.344 30.7167 117.094 30.6638 116.829 30.5805L116.511 32.7827C116.504 32.8508 116.485 32.8924 116.454 32.9076C116.432 32.9303 116.39 32.9416 116.33 32.9416H115.717C115.656 32.9416 115.611 32.9303 115.58 32.9076C115.55 32.8924 115.543 32.8508 115.558 32.7827L116.625 25.1773C116.632 25.0789 116.689 25.0146 116.795 24.9843C117.181 24.8178 117.563 24.7081 117.941 24.6551C118.327 24.5946 118.694 24.5643 119.043 24.5643C119.436 24.5643 119.773 24.6249 120.053 24.7459C120.333 24.867 120.56 25.0373 120.734 25.2567C120.915 25.4762 121.048 25.7411 121.131 26.0513C121.214 26.354 121.256 26.687 121.256 27.0503C121.256 27.5876 121.188 28.0832 121.052 28.5373C120.915 28.9913 120.715 29.3849 120.45 29.7178C120.193 30.0508 119.875 30.3119 119.497 30.5011C119.126 30.6827 118.702 30.7735 118.225 30.7735ZM116.954 29.7178C117.219 29.8011 117.45 29.8578 117.646 29.8881C117.843 29.9108 118.028 29.9222 118.203 29.9222C118.467 29.9222 118.725 29.873 118.974 29.7746C119.224 29.6762 119.444 29.5173 119.633 29.2978C119.83 29.0708 119.985 28.7794 120.098 28.4238C120.212 28.0605 120.268 27.614 120.268 27.0843C120.268 26.4713 120.14 26.04 119.883 25.7903C119.625 25.5405 119.27 25.4157 118.815 25.4157C118.626 25.4157 118.407 25.4346 118.157 25.4724C117.915 25.5103 117.707 25.5632 117.533 25.6313L116.954 29.7178Z" fill="white"/>
<path d="M130.394 30.4897C130.379 30.5578 130.36 30.6032 130.337 30.6259C130.314 30.6411 130.273 30.6486 130.212 30.6486H129.599C129.539 30.6486 129.493 30.6411 129.463 30.6259C129.433 30.6032 129.425 30.5578 129.44 30.4897L129.86 27.493C129.906 27.16 129.925 26.8649 129.917 26.6076C129.917 26.3503 129.872 26.1346 129.781 25.9605C129.698 25.7865 129.561 25.6578 129.372 25.5746C129.191 25.4838 128.941 25.4384 128.623 25.4384C128.509 25.4384 128.381 25.4497 128.237 25.4724C128.093 25.4876 127.949 25.514 127.806 25.5519C127.669 25.5822 127.533 25.6238 127.397 25.6767C127.261 25.7222 127.144 25.7713 127.045 25.8243C127.121 26.0513 127.155 26.3011 127.147 26.5735C127.14 26.8384 127.113 27.1259 127.068 27.4362L126.636 30.4897C126.621 30.5578 126.599 30.6032 126.568 30.6259C126.546 30.6411 126.504 30.6486 126.444 30.6486H125.842C125.781 30.6486 125.736 30.6411 125.706 30.6259C125.683 30.6032 125.675 30.5578 125.683 30.4897L126.114 27.4362C126.152 27.1411 126.171 26.8724 126.171 26.6303C126.171 26.3805 126.126 26.1686 126.035 25.9946C125.944 25.8205 125.8 25.6843 125.604 25.5859C125.407 25.4876 125.131 25.4384 124.775 25.4384C124.722 25.4384 124.65 25.4422 124.559 25.4497C124.468 25.4497 124.37 25.4535 124.264 25.4611C124.158 25.4686 124.052 25.48 123.946 25.4951C123.84 25.5027 123.753 25.514 123.685 25.5292L122.993 30.4897C122.978 30.5578 122.955 30.6032 122.925 30.6259C122.902 30.6411 122.86 30.6486 122.8 30.6486H122.198C122.138 30.6486 122.092 30.6411 122.062 30.6259C122.032 30.6032 122.024 30.5578 122.039 30.4897L122.709 25.5973C122.747 25.34 122.822 25.1357 122.936 24.9843C123.057 24.833 123.261 24.727 123.549 24.6665C123.602 24.6513 123.685 24.64 123.799 24.6324C123.912 24.6173 124.033 24.6059 124.162 24.5984C124.291 24.5832 124.415 24.5757 124.536 24.5757C124.665 24.5681 124.771 24.5643 124.854 24.5643C125.293 24.5643 125.649 24.6135 125.921 24.7119C126.194 24.8027 126.428 24.9578 126.625 25.1773C126.92 24.9805 127.268 24.8292 127.669 24.7232C128.071 24.6173 128.475 24.5643 128.884 24.5643C129.338 24.5643 129.705 24.6362 129.985 24.78C130.265 24.9162 130.477 25.1092 130.621 25.3589C130.772 25.6011 130.859 25.8924 130.882 26.233C130.905 26.5659 130.889 26.933 130.836 27.334L130.394 30.4897Z" fill="white"/>
<path d="M135.074 24.5643C135.323 24.5643 135.622 24.5794 135.97 24.6097C136.326 24.64 136.705 24.7081 137.106 24.814C137.227 24.8519 137.295 24.9011 137.31 24.9616C137.325 25.0146 137.325 25.0827 137.31 25.1659C137.181 26.0513 137.06 26.8989 136.947 27.7086C136.833 28.5184 136.723 29.347 136.618 30.1946C136.61 30.293 136.549 30.3686 136.436 30.4216C136.269 30.4897 136.088 30.5465 135.891 30.5919C135.694 30.6373 135.494 30.6713 135.289 30.694C135.093 30.7243 134.896 30.7432 134.699 30.7508C134.502 30.7659 134.325 30.7735 134.166 30.7735C133.757 30.7735 133.409 30.7167 133.121 30.6032C132.841 30.4897 132.614 30.3346 132.44 30.1378C132.266 29.9411 132.141 29.7103 132.066 29.4454C131.99 29.1805 131.952 28.8967 131.952 28.594C131.952 28.0265 132.009 27.5005 132.122 27.0162C132.243 26.5243 132.429 26.0967 132.679 25.7335C132.928 25.3703 133.25 25.0865 133.643 24.8822C134.037 24.6703 134.514 24.5643 135.074 24.5643ZM134.449 29.9222C134.533 29.9222 134.627 29.9184 134.733 29.9108C134.847 29.9032 134.96 29.8919 135.074 29.8767C135.187 29.8616 135.297 29.8427 135.403 29.82C135.516 29.7973 135.619 29.767 135.709 29.7292C135.8 29.0027 135.891 28.3027 135.982 27.6292C136.08 26.9557 136.182 26.2708 136.288 25.5746C136.099 25.514 135.887 25.4724 135.653 25.4497C135.426 25.427 135.225 25.4157 135.051 25.4157C134.779 25.4157 134.514 25.4686 134.256 25.5746C134.007 25.673 133.783 25.8432 133.587 26.0854C133.39 26.32 133.231 26.634 133.11 27.0276C132.989 27.4211 132.928 27.913 132.928 28.5032C132.928 28.9649 133.042 29.3167 133.269 29.5589C133.503 29.8011 133.897 29.9222 134.449 29.9222Z" fill="white"/>
<path d="M139.432 25.4838C139.47 25.2643 139.546 25.0789 139.659 24.9276C139.773 24.7686 139.962 24.6892 140.227 24.6892H142.963C143.159 24.6892 143.292 24.7422 143.36 24.8481C143.428 24.9465 143.451 25.0827 143.428 25.2567L142.69 30.4784C142.675 30.554 142.652 30.6032 142.622 30.6259C142.592 30.6411 142.539 30.6486 142.463 30.6486H141.918C141.85 30.6486 141.801 30.6411 141.771 30.6259C141.748 30.6032 141.737 30.554 141.737 30.4784C141.858 29.6535 141.971 28.8324 142.077 28.0151C142.191 27.1978 142.308 26.3767 142.429 25.5519H140.363C140.325 25.7032 140.291 25.8546 140.261 26.0059C140.238 26.1497 140.212 26.2973 140.181 26.4486C140.023 27.2357 139.871 27.8865 139.727 28.4011C139.591 28.9157 139.436 29.3319 139.262 29.6497C139.088 29.9676 138.88 30.2135 138.638 30.3876C138.396 30.554 138.093 30.6865 137.73 30.7849C137.669 30.8 137.616 30.8038 137.571 30.7962C137.525 30.7886 137.495 30.7546 137.48 30.694L137.355 30.274C137.332 30.1908 137.336 30.1303 137.366 30.0924C137.389 30.047 137.442 30.0054 137.525 29.9676C137.737 29.8692 137.919 29.7632 138.07 29.6497C138.229 29.5286 138.373 29.3508 138.501 29.1162C138.63 28.874 138.751 28.5486 138.865 28.14C138.986 27.7238 139.114 27.1713 139.251 26.4827L139.432 25.4838Z" fill="white"/>
<path fill-rule="evenodd" clip-rule="evenodd" d="M20.5436 0H12.6869C10.876 0 9.0944 1.48957 8.6855 3.30042L6.84545 11.3324C6.78703 11.5661 6.96227 11.8289 7.22514 11.8289H18.0318C18.2071 11.8289 18.3823 11.7121 18.4115 11.5077L20.9233 0.496522C21.011 0.262864 20.8065 0 20.5436 0ZM16.3962 18.3421H5.58953C5.41429 18.3421 5.23905 18.459 5.20984 18.6634L0.0109527 41.5035C-0.0182546 41.6203 0.010953 41.7371 0.0985747 41.854C0.186196 41.9416 0.273818 42 0.419854 42H7.69246C9.79538 42 11.9567 40.2768 12.424 38.1739L16.8051 18.8679C16.8343 18.751 16.8051 18.6342 16.7175 18.5174C16.6299 18.4006 16.513 18.3421 16.3962 18.3421ZM34.9136 18.3421L24.1069 18.3129C23.9317 18.3129 23.7564 18.4298 23.7272 18.6342L21.1862 29.6746C21.157 29.7914 21.1862 29.9082 21.2738 30.025C21.3614 30.1127 21.4491 30.1711 21.5951 30.1711H29.335C31.1459 30.1711 33.0443 28.7107 33.4824 26.9291L35.3517 18.8679C35.3809 18.751 35.3517 18.6342 35.2641 18.5174C35.1473 18.4006 35.0596 18.3421 34.9136 18.3421ZM36.4032 0H28.3128C28.1375 0 27.9623 0.116829 27.9331 0.321279L25.3628 11.3616C25.3336 11.4784 25.3628 11.5953 25.4505 11.7121C25.5381 11.7997 25.6257 11.8581 25.7717 11.8581H36.6368C36.8121 11.8581 36.9873 11.7413 37.0165 11.5369L38.9442 3.30042C39.3531 1.46036 38.214 0 36.4032 0Z" fill="#CC0000"/>
<path fill-rule="evenodd" clip-rule="evenodd" d="M67.8292 0.350469C67.7708 0.204433 67.6248 0.146019 67.3911 0.146019H54.9488C54.7152 0.146019 54.5399 0.204433 54.4523 0.321262C54.3355 0.438091 54.277 0.584127 54.2478 0.759371L51.035 17.2323C51.0058 17.4075 51.0058 17.5535 51.0935 17.6704C51.1519 17.7872 51.3271 17.8164 51.5316 17.8164H54.686C54.9196 17.8164 55.0656 17.758 55.1533 17.6119C55.2409 17.4659 55.2993 17.3491 55.3285 17.2323L57.928 3.76772H62.9516L60.3522 17.2323C60.3229 17.4075 60.3229 17.5535 60.4106 17.6704C60.469 17.7872 60.6442 17.8164 60.8487 17.8164H64.0031C64.2367 17.8164 64.412 17.758 64.4996 17.6119C64.5872 17.4659 64.6164 17.3491 64.6456 17.2323L67.8584 0.759371C67.8876 0.613334 67.8876 0.467298 67.8292 0.350469ZM80.7972 4.67314H77.8181C77.5844 4.67314 77.4092 4.73155 77.3216 4.87759C77.2339 5.02363 77.1755 5.14046 77.1463 5.25729L75.5691 13.4353C75.2771 13.5521 74.8681 13.6982 74.3716 13.8734C73.8751 14.0487 73.437 14.1363 73.0281 14.1363C72.4732 14.1363 72.0935 13.9902 71.9182 13.6982C71.743 13.4061 71.7138 12.8804 71.8598 12.1502L73.2033 5.22808C73.2325 5.05283 73.2325 4.9068 73.1741 4.78997C73.1157 4.67314 72.9697 4.64393 72.736 4.64393H69.7277C69.4648 4.64393 69.3188 4.70235 69.2311 4.84838C69.1435 4.99442 69.0851 5.11125 69.0559 5.22808L67.5663 12.822C67.4495 13.4937 67.3619 14.1363 67.2743 14.7496C67.2159 15.363 67.2743 15.9179 67.4203 16.3852C67.5663 16.8526 67.8876 17.2323 68.3549 17.5243C68.8222 17.8164 69.5232 17.9624 70.4579 17.9624C71.0712 17.9624 71.8014 17.8456 72.59 17.5827C73.4078 17.3199 74.1672 16.9694 74.8682 16.5021L74.9266 16.5313L74.7805 17.1738C74.7513 17.3199 74.7805 17.4367 74.8097 17.5827C74.8389 17.6996 74.985 17.758 75.2478 17.758H78.2562C78.4898 17.758 78.6359 17.6996 78.7235 17.6119C78.8111 17.4951 78.8695 17.3783 78.8987 17.1738L81.2353 5.22808C81.3814 4.87759 81.2061 4.67314 80.7972 4.67314ZM92.2465 10.1641C92.6846 9.69678 93.1811 8.9666 93.7068 7.97356L95.1088 5.34491C95.1964 5.19887 95.2256 5.05283 95.1964 4.9068C95.1672 4.76076 95.0211 4.70235 94.7875 4.70235H92.1004C91.7207 4.70235 91.4579 4.76076 91.3118 4.84838C91.1658 4.93601 91.0198 5.14046 90.8737 5.40332L89.4426 7.88594C89.0921 8.49929 88.7416 8.90819 88.4203 9.05423C88.0698 9.22947 87.7193 9.31709 87.3396 9.31709H86.7263L87.5149 5.25729C87.5441 5.14046 87.5441 5.02363 87.5149 4.87759C87.4565 4.76076 87.3396 4.70235 87.106 4.70235H84.0684C83.864 4.70235 83.6887 4.76076 83.6011 4.84838C83.4843 4.96521 83.4259 5.08204 83.3967 5.25729L81.0893 17.2615C81.0601 17.4075 81.0601 17.5535 81.1185 17.6704C81.1769 17.7872 81.3229 17.8164 81.5274 17.8164H84.5649C84.7986 17.8164 84.9739 17.758 85.0323 17.6412C85.0907 17.5243 85.1491 17.4075 85.1783 17.2615L86.0545 12.7051H87.0184C87.398 12.7051 87.7485 12.822 88.099 13.0556C88.4495 13.2893 88.654 13.7274 88.7416 14.3699L89.0629 16.8818C89.1213 17.2323 89.1797 17.4659 89.2965 17.6119C89.3841 17.7288 89.647 17.7872 90.0851 17.7872H92.5385C92.7722 17.7872 92.9182 17.7288 93.0058 17.5827C93.0935 17.4367 93.1227 17.2907 93.0935 17.1446L92.743 14.3699C92.6554 13.5521 92.4801 12.8512 92.188 12.267C91.896 11.6829 91.4579 11.274 90.8153 11.0987L90.8445 11.0403C91.3118 10.9527 91.8083 10.6314 92.2465 10.1641ZM106.441 5.49094C106.383 5.34491 106.237 5.19887 106.003 5.11125C105.477 4.87759 104.864 4.67314 104.105 4.58552C103.374 4.46869 102.673 4.43948 102.031 4.43948C100.717 4.43948 99.6359 4.61473 98.7889 4.96521C97.9419 5.3157 97.2409 5.78301 96.7152 6.36716C96.1894 6.9513 95.7805 7.62307 95.4885 8.41166C95.1964 9.17105 94.9919 9.98886 94.8167 10.8651C94.7291 11.274 94.6707 11.7121 94.6122 12.1794C94.5538 12.6467 94.5538 13.0848 94.5538 13.4645C94.5538 14.0779 94.6414 14.662 94.7875 15.217C94.9335 15.7719 95.1964 16.2684 95.5761 16.6773C95.9558 17.1154 96.4815 17.4367 97.1533 17.6996C97.825 17.9332 98.6721 18.0793 99.6943 18.0793C100.016 18.0793 100.366 18.0793 100.717 18.0501C101.067 18.0208 101.447 17.9916 101.826 17.9332C102.206 17.8748 102.557 17.8164 102.907 17.7288C103.258 17.6412 103.579 17.5535 103.842 17.4659C104.28 17.2907 104.543 17.1154 104.66 16.9694C104.747 16.8234 104.806 16.5605 104.806 16.2392V14.7204C104.806 14.4284 104.747 14.2531 104.63 14.2239C104.513 14.1947 104.309 14.1947 104.017 14.2239C103.433 14.2823 102.878 14.3407 102.323 14.3699C101.768 14.3992 101.301 14.4284 100.95 14.4284C100.249 14.4284 99.7527 14.2823 99.4314 13.9902C99.1102 13.6982 98.9349 13.2309 98.9349 12.5591C98.9349 12.3546 98.9349 12.1502 98.9641 11.9165C98.9933 11.6829 99.0225 11.42 99.0517 11.0987C99.2562 10.0181 99.5775 9.22947 100.074 8.76215C100.541 8.29484 101.242 8.03197 102.118 8.03197C102.527 8.03197 102.936 8.06118 103.345 8.09039C103.754 8.11959 104.221 8.17801 104.776 8.23642C104.952 8.26563 105.098 8.26563 105.214 8.26563C105.331 8.26563 105.448 8.26563 105.507 8.23642C105.565 8.20722 105.653 8.1488 105.682 8.09039C105.74 8.00276 105.799 7.88594 105.828 7.76911L106.324 6.1335C106.5 5.84143 106.5 5.63698 106.441 5.49094ZM118.299 6.48399C118.036 6.04588 117.686 5.66619 117.277 5.37411C116.839 5.08204 116.342 4.87759 115.758 4.73155C115.174 4.58552 114.59 4.5271 113.977 4.5271C112.721 4.5271 111.669 4.70235 110.822 5.02363C109.975 5.37411 109.274 5.81222 108.69 6.33795C108.135 6.89289 107.668 7.50624 107.376 8.17801C107.055 8.84978 106.821 9.52154 106.646 10.1933C106.5 10.7482 106.383 11.3032 106.295 11.8873C106.208 12.4715 106.149 13.0264 106.149 13.6106C106.149 14.3991 106.266 15.1001 106.529 15.6551C106.762 16.21 107.113 16.6773 107.551 17.057C107.989 17.4075 108.515 17.6704 109.157 17.8456C109.771 17.9916 110.472 18.0793 111.231 18.0793C111.611 18.0793 111.991 18.0793 112.429 18.0501C112.867 18.0208 113.276 17.9916 113.714 17.9332C114.152 17.8748 114.561 17.8164 114.94 17.758C115.32 17.6704 115.671 17.5827 115.963 17.4659C116.342 17.3199 116.605 17.1738 116.722 17.0278C116.839 16.8818 116.897 16.6189 116.897 16.2684V14.9833C116.897 14.7496 116.839 14.6036 116.722 14.5452C116.605 14.4868 116.43 14.4868 116.255 14.5452C115.525 14.6328 114.853 14.6912 114.298 14.7204C113.743 14.7496 113.159 14.7788 112.545 14.7788C112.224 14.7788 111.932 14.7788 111.669 14.7496C111.406 14.7204 111.173 14.6912 110.968 14.6036C110.764 14.5452 110.618 14.4284 110.53 14.2823C110.413 14.1363 110.384 13.961 110.384 13.6982C110.384 13.4645 110.413 13.2309 110.501 13.0264C111.319 12.9972 112.195 12.9096 113.159 12.7635C114.123 12.6175 115.028 12.3839 115.846 12.0334C116.693 11.6829 117.365 11.1864 117.92 10.573C118.475 9.93044 118.767 9.08343 118.767 8.06118C118.708 7.44783 118.562 6.9221 118.299 6.48399ZM114.035 9.37551C113.801 9.60916 113.509 9.78441 113.159 9.93044C112.808 10.0765 112.429 10.1933 111.991 10.2517C111.552 10.3101 111.144 10.3686 110.764 10.3978C110.851 10.1057 110.968 9.78441 111.056 9.46313C111.173 9.14185 111.319 8.84978 111.494 8.58691C111.669 8.32405 111.903 8.11959 112.166 7.94435C112.429 7.76911 112.75 7.68148 113.159 7.68148C113.539 7.68148 113.831 7.76911 114.035 7.91514C114.24 8.06118 114.327 8.26563 114.327 8.52849C114.386 8.87898 114.269 9.14185 114.035 9.37551ZM133.487 5.14046C133.487 5.02363 133.458 4.93601 133.399 4.84838C133.341 4.76076 133.195 4.70235 132.991 4.70235H125.338C124.9 4.70235 124.55 4.73155 124.258 4.81918C123.966 4.87759 123.703 5.02363 123.527 5.16966C123.323 5.34491 123.148 5.54936 123.031 5.84143C122.885 6.1335 122.768 6.48399 122.651 6.89289L121.278 12.267C121.074 13.0264 120.782 13.6398 120.402 14.0779C120.023 14.516 119.468 14.8373 118.737 15.0125C118.475 15.1001 118.299 15.1877 118.212 15.3046C118.124 15.3922 118.066 15.5382 118.066 15.7427L118.182 17.6119C118.212 17.8164 118.241 17.9624 118.329 18.0501C118.416 18.1377 118.591 18.1961 118.854 18.1961C119.964 18.1961 120.899 18.0501 121.629 17.7288C122.359 17.4075 122.943 16.9986 123.411 16.4729C123.849 15.9471 124.199 15.3338 124.462 14.6328C124.696 13.9318 124.929 13.2017 125.134 12.4131L126.156 8.00277H128.902C128.609 9.57996 128.288 11.0987 127.996 12.6467C127.704 14.1655 127.383 15.7135 127.091 17.2907V17.3783C127.091 17.4075 127.091 17.4367 127.091 17.4367V17.4659C127.091 17.7288 127.266 17.8456 127.616 17.8456H130.566C130.829 17.8456 131.004 17.7872 131.092 17.6704C131.18 17.5535 131.238 17.4367 131.267 17.2907L133.575 5.25729V5.14046H133.487ZM144.644 9.20026C144.265 8.9374 143.826 8.76215 143.33 8.64532C142.833 8.5577 142.308 8.49929 141.782 8.49929C141.227 8.49929 140.672 8.5577 140.176 8.64532C139.679 8.73295 139.153 8.87898 138.657 9.02502C138.657 8.99581 138.657 8.99581 138.628 8.99581C138.744 8.41166 138.861 7.82752 138.978 7.24338C139.095 6.65923 139.212 6.07509 139.299 5.49094C139.329 5.3157 139.358 5.19887 139.358 5.11125C139.358 4.81918 139.153 4.67314 138.774 4.67314H135.999C135.678 4.67314 135.473 4.73155 135.386 4.87759C135.298 5.02363 135.24 5.22808 135.181 5.52015C134.831 7.24338 134.509 8.99581 134.188 10.719C133.867 12.4423 133.516 14.1655 133.166 15.9179C133.137 16.0055 133.137 16.0932 133.137 16.1516C133.137 16.21 133.137 16.2976 133.137 16.356C133.137 16.5605 133.166 16.7065 133.253 16.8526C133.341 16.9986 133.487 17.1154 133.692 17.2323C133.984 17.3783 134.363 17.4951 134.801 17.6119C135.24 17.7288 135.707 17.8164 136.174 17.8748C136.671 17.9332 137.167 17.9916 137.664 18.0208C138.189 18.0501 138.686 18.0501 139.153 18.0501C140.292 18.0501 141.285 17.9332 142.074 17.6704C142.863 17.4367 143.505 17.0862 144.031 16.6481C144.557 16.21 144.966 15.7135 145.228 15.1585C145.491 14.5744 145.696 13.961 145.813 13.3185C145.842 13.1724 145.871 12.968 145.9 12.7343C145.929 12.5007 145.929 12.3254 145.929 12.1794C145.929 11.42 145.813 10.8067 145.579 10.3101C145.316 9.84282 145.024 9.46313 144.644 9.20026ZM141.139 14.1655C140.876 14.5452 140.322 14.7496 139.504 14.7496C139.182 14.7496 138.861 14.7496 138.54 14.7204C138.219 14.6912 137.927 14.662 137.664 14.6328L138.16 12.0918C138.54 11.9749 138.861 11.8873 139.182 11.8289C139.475 11.7705 139.825 11.7413 140.234 11.7413C140.73 11.7413 141.081 11.8581 141.256 12.0626C141.431 12.267 141.519 12.5299 141.548 12.822C141.548 13.3185 141.402 13.7858 141.139 14.1655ZM169.792 0.350469C169.733 0.204433 169.587 0.146019 169.354 0.146019H156.911C156.678 0.146019 156.502 0.204433 156.415 0.321262C156.298 0.438091 156.24 0.584127 156.21 0.759371L152.998 17.2323C152.968 17.4075 152.968 17.5535 153.056 17.6704C153.114 17.7872 153.29 17.8164 153.494 17.8164H156.648C156.882 17.8164 157.028 17.758 157.116 17.6119C157.203 17.4659 157.262 17.3491 157.291 17.2323L159.89 3.76772H164.914L162.315 17.2323C162.285 17.4075 162.285 17.5535 162.373 17.6704C162.431 17.7872 162.607 17.8164 162.811 17.8164H165.936C166.17 17.8164 166.345 17.758 166.433 17.6119C166.52 17.4659 166.55 17.3491 166.579 17.2323L169.792 0.759371C169.85 0.613334 169.821 0.467298 169.792 0.350469ZM183.519 5.14046C183.519 5.02363 183.49 4.93601 183.431 4.84838C183.373 4.76076 183.227 4.70235 183.023 4.70235H175.399C174.961 4.70235 174.611 4.73155 174.319 4.81918C174.027 4.87759 173.764 5.02363 173.589 5.16966C173.384 5.34491 173.209 5.54936 173.092 5.84143C172.946 6.1335 172.829 6.48399 172.712 6.89289L171.34 12.267C171.135 13.0264 170.843 13.6398 170.463 14.0779C170.084 14.516 169.529 14.8373 168.799 15.0125C168.536 15.1001 168.361 15.1877 168.273 15.3046C168.185 15.3922 168.127 15.5382 168.127 15.7427L168.244 17.6119C168.273 17.8164 168.302 17.9624 168.39 18.0501C168.477 18.1377 168.653 18.1961 168.915 18.1961C170.025 18.1961 170.96 18.0501 171.69 17.7288C172.42 17.4075 173.004 16.9986 173.472 16.4729C173.91 15.9471 174.26 15.3338 174.523 14.6328C174.757 13.9318 174.991 13.2017 175.195 12.4131L176.217 8.00277H178.963C178.671 9.57996 178.349 11.0987 178.057 12.6467C177.765 14.1655 177.444 15.7135 177.152 17.2907V17.3783C177.152 17.4075 177.152 17.4367 177.152 17.4367V17.4659C177.152 17.7288 177.327 17.8456 177.678 17.8456H180.628C180.89 17.8456 181.066 17.7872 181.153 17.6704C181.241 17.5535 181.299 17.4367 181.329 17.2907L183.636 5.25729V5.14046H183.519ZM200.868 5.84143C200.459 5.40332 199.934 5.08204 199.291 4.81918C198.648 4.58552 197.831 4.43948 196.838 4.43948C195.786 4.43948 194.851 4.58552 194.092 4.87759C193.333 5.16966 192.69 5.57856 192.164 6.04588C191.639 6.5132 191.23 7.06813 190.908 7.65228C190.587 8.23642 190.354 8.82057 190.178 9.40471H188.776C188.922 8.70374 189.039 8.03197 189.185 7.331C189.302 6.63002 189.448 5.92905 189.594 5.22808V5.05283C189.594 4.936 189.565 4.84838 189.507 4.76076C189.448 4.67314 189.331 4.61472 189.127 4.61472H186.148C185.914 4.61472 185.739 4.67314 185.651 4.78997C185.564 4.9068 185.476 5.05283 185.447 5.22808L183.139 17.1446V17.3199C183.139 17.5827 183.285 17.7288 183.577 17.7288H186.586C186.819 17.7288 186.995 17.6704 187.082 17.5535C187.17 17.4367 187.228 17.2907 187.258 17.1446C187.404 16.356 187.55 15.5674 187.696 14.7788C187.842 13.9902 188.017 13.2017 188.163 12.4131H189.623C189.623 12.5007 189.623 12.5883 189.623 12.7051C189.623 12.822 189.623 12.9096 189.623 12.9972C189.623 13.6982 189.711 14.3699 189.915 14.9541C190.091 15.5674 190.383 16.0932 190.792 16.5313C191.201 16.9694 191.726 17.3199 192.369 17.5535C193.011 17.7872 193.8 17.9332 194.705 17.9332C195.64 17.9332 196.458 17.8456 197.159 17.6412C197.86 17.4367 198.444 17.1738 198.94 16.8234C199.437 16.4729 199.846 16.064 200.167 15.6259C200.488 15.1585 200.751 14.6912 200.956 14.1655C201.16 13.6398 201.335 13.114 201.452 12.5883C201.569 12.0626 201.686 11.5368 201.774 11.0403C201.89 10.4854 201.949 9.81361 201.949 9.02502C201.949 8.41167 201.861 7.85673 201.715 7.27258C201.54 6.77606 201.277 6.27954 200.868 5.84143ZM197.655 11.2448C197.451 12.3254 197.159 13.1432 196.808 13.669C196.458 14.2239 195.874 14.4868 195.085 14.4868C194.559 14.4868 194.18 14.3407 193.975 14.0779C193.771 13.815 193.683 13.3769 193.683 12.822C193.683 12.6175 193.712 12.3839 193.742 12.0918C193.771 11.8289 193.829 11.5368 193.888 11.2448C194.092 10.1933 194.384 9.3755 194.735 8.84977C195.085 8.32404 195.611 8.03197 196.312 8.03197C196.925 8.03197 197.334 8.17801 197.539 8.44087C197.743 8.70374 197.86 9.14185 197.86 9.69678C197.831 10.1349 197.772 10.6606 197.655 11.2448ZM214.654 5.49094C214.596 5.34491 214.45 5.19887 214.216 5.11125C213.69 4.87759 213.077 4.67314 212.317 4.58552C211.587 4.46869 210.886 4.43948 210.244 4.43948C208.929 4.43948 207.849 4.61473 207.002 4.96521C206.155 5.3157 205.454 5.78301 204.928 6.36716C204.402 6.9513 203.993 7.62307 203.701 8.41166C203.409 9.17105 203.205 9.98886 203.029 10.8651C202.942 11.274 202.883 11.7121 202.825 12.1794C202.767 12.6467 202.767 13.0848 202.767 13.4645C202.767 14.0779 202.854 14.662 203 15.217C203.146 15.7719 203.409 16.2684 203.789 16.6773C204.169 17.1154 204.694 17.4367 205.366 17.6996C206.038 17.9332 206.885 18.0793 207.907 18.0793C208.228 18.0793 208.579 18.0793 208.929 18.0501C209.28 18.0208 209.66 17.9916 210.039 17.9332C210.419 17.8748 210.769 17.8164 211.12 17.7288C211.47 17.6412 211.792 17.5535 212.055 17.4659C212.493 17.2907 212.756 17.1154 212.872 16.9694C212.96 16.8234 213.018 16.5605 213.018 16.2392V14.7204C213.018 14.4284 212.96 14.2531 212.843 14.2239C212.726 14.1947 212.522 14.1947 212.23 14.2239C211.646 14.2823 211.091 14.3407 210.536 14.3699C209.981 14.3992 209.514 14.4284 209.163 14.4284C208.462 14.4284 207.966 14.2823 207.644 13.9902C207.323 13.6982 207.148 13.2309 207.148 12.5591C207.148 12.3546 207.148 12.1502 207.177 11.9165C207.206 11.6829 207.235 11.42 207.265 11.0987C207.469 10.0181 207.79 9.22947 208.287 8.76215C208.754 8.29484 209.455 8.03197 210.331 8.03197C210.74 8.03197 211.149 8.06118 211.558 8.09039C211.967 8.11959 212.434 8.17801 212.989 8.23642C213.164 8.26563 213.31 8.26563 213.427 8.26563C213.544 8.26563 213.661 8.26563 213.719 8.23642C213.778 8.20722 213.865 8.1488 213.895 8.09039C213.953 8.00276 214.011 7.88594 214.041 7.76911L214.537 6.1335C214.712 5.84143 214.742 5.63698 214.654 5.49094Z" fill="white"/>
</svg>
